<mxfile host="Electron" modified="2025-10-11T14:26:26.716Z" agent="Mozilla/5.0 (Macintosh; Intel Mac OS X 10_15_7) AppleWebKit/537.36 (KHTML, like Gecko) draw.io/21.1.2 Chrome/106.0.5249.199 Electron/21.4.3 Safari/537.36" version="21.1.2" etag="zbbnQbIIy52bhX_jbYhW" type="device">
  <diagram id="dev-flow-1" name="Dev Perspective Flow">
    <mxGraphModel dx="3354" dy="1394" grid="1" gridSize="10" guides="1" tooltips="1" connect="1" arrows="1" fold="1" page="1" pageScale="1" pageWidth="2200" pageHeight="1400" math="0" shadow="0">
      <root>
        <mxCell id="0" />
        <mxCell id="1" parent="0" />
        <mxCell id="3" value="Developer" style="shape=swimlane;rounded=1;swimlaneFillColor=#f8faff;horizontal=0;" parent="1" vertex="1">
          <mxGeometry x="20" y="20" width="1600" height="900" as="geometry" />
        </mxCell>
        <mxCell id="5" value="START" style="shape=terminator;whiteSpace=wrap;fillColor=#f5f5f5;strokeColor=#666666;" parent="3" vertex="1">
          <mxGeometry x="700" y="40" width="200" height="50" as="geometry" />
        </mxCell>
        <mxCell id="6" value="What are you doing?&#xa;Feature/Bugfix | Release | Hotfix | Backport" style="shape=rhombus;whiteSpace=wrap;rounded=0;fillColor=#fff2cc;strokeColor=#d6b656;" parent="3" vertex="1">
          <mxGeometry x="620" y="120" width="360" height="100" as="geometry" />
        </mxCell>
        <mxCell id="7" value="FEATURE / BUGFIX" style="shape=rectangle;whiteSpace=wrap;rounded=1;fillColor=#ffffff;strokeColor=#000000;" parent="3" vertex="1">
          <mxGeometry x="60" y="260" width="300" height="50" as="geometry" />
        </mxCell>
        <mxCell id="8" value="1) Branch from `develop`&#xa;feat/* or fix/*" style="shape=rectangle;whiteSpace=wrap;rounded=1;fillColor=#ffffff;strokeColor=#000000;" parent="3" vertex="1">
          <mxGeometry x="60" y="330" width="300" height="70" as="geometry" />
        </mxCell>
        <mxCell id="9" value="2) PR → base `develop`&#xa;CI green, get review" style="shape=rectangle;whiteSpace=wrap;rounded=1;fillColor=#ffffff;strokeColor=#000000;" parent="3" vertex="1">
          <mxGeometry x="60" y="420" width="300" height="70" as="geometry" />
        </mxCell>
        <mxCell id="10" value="3) Merge to `develop`" style="shape=rectangle;whiteSpace=wrap;rounded=1;fillColor=#ffffff;strokeColor=#000000;" parent="3" vertex="1">
          <mxGeometry x="60" y="510" width="300" height="60" as="geometry" />
        </mxCell>
        <mxCell id="11" value="4) Done (no PR to `main` in strict GitFlow)" style="shape=rectangle;whiteSpace=wrap;rounded=1;fillColor=#ffffff;strokeColor=#000000;" parent="3" vertex="1">
          <mxGeometry x="60" y="590" width="300" height="70" as="geometry" />
        </mxCell>
        <mxCell id="12" value="BACKPORT (optional)" style="shape=rectangle;whiteSpace=wrap;rounded=1;fillColor=#ffffff;strokeColor=#000000;" parent="3" vertex="1">
          <mxGeometry x="430" y="260" width="340" height="50" as="geometry" />
        </mxCell>
        <mxCell id="13" value="(You already merged a PR)&#xa;Add label: auto-backport:release/x.y&#xa;(targets stabilization branch)" style="shape=rectangle;whiteSpace=wrap;rounded=1;fillColor=#ffffff;strokeColor=#000000;" parent="3" vertex="1">
          <mxGeometry x="430" y="330" width="340" height="110" as="geometry" />
        </mxCell>
        <mxCell id="14" value="RELEASE" style="shape=rectangle;whiteSpace=wrap;rounded=1;fillColor=#ffffff;strokeColor=#000000;" parent="3" vertex="1">
          <mxGeometry x="820" y="260" width="300" height="50" as="geometry" />
        </mxCell>
        <mxCell id="15" value="A) Cut `release/x.y` from `develop`&#xa;(feature freeze: fixes/docs only)" style="shape=rectangle;whiteSpace=wrap;rounded=1;fillColor=#ffffff;strokeColor=#000000;" parent="3" vertex="1">
          <mxGeometry x="820" y="330" width="300" height="90" as="geometry" />
        </mxCell>
        <mxCell id="16" value="B) Stabilize &amp; test" style="shape=rectangle;whiteSpace=wrap;rounded=1;fillColor=#ffffff;strokeColor=#000000;" parent="3" vertex="1">
          <mxGeometry x="820" y="430" width="300" height="60" as="geometry" />
        </mxCell>
        <mxCell id="17" value="C) Tag on release branch: `vX.Y.Z`" style="shape=rectangle;whiteSpace=wrap;rounded=1;fillColor=#ffffff;strokeColor=#000000;" parent="3" vertex="1">
          <mxGeometry x="820" y="510" width="300" height="60" as="geometry" />
        </mxCell>
        <mxCell id="18" value="HOTFIX" style="shape=rectangle;whiteSpace=wrap;rounded=1;fillColor=#ffffff;strokeColor=#000000;" parent="3" vertex="1">
          <mxGeometry x="1160" y="260" width="300" height="50" as="geometry" />
        </mxCell>
        <mxCell id="19" value="A) Branch from last prod tag&#xa;`hotfix/x.y.z` from `vX.Y.(Z-1)`" style="shape=rectangle;whiteSpace=wrap;rounded=1;fillColor=#ffffff;strokeColor=#000000;" parent="3" vertex="1">
          <mxGeometry x="1160" y="330" width="300" height="90" as="geometry" />
        </mxCell>
        <mxCell id="20" value="B) PR → base `main`&#xa;CI green, get review" style="shape=rectangle;whiteSpace=wrap;rounded=1;fillColor=#ffffff;strokeColor=#000000;" parent="3" vertex="1">
          <mxGeometry x="1160" y="430" width="300" height="70" as="geometry" />
        </mxCell>
        <mxCell id="21" value="C) Merge → CI/CD deploys → create tag" style="shape=rectangle;whiteSpace=wrap;rounded=1;fillColor=#ffffff;strokeColor=#000000;" parent="3" vertex="1">
          <mxGeometry x="1160" y="510" width="300" height="60" as="geometry" />
        </mxCell>
        <mxCell id="26" style="endArrow=block;edgeStyle=elbowEdgeStyle;rounded=0;" parent="3" source="5" target="6" edge="1">
          <mxGeometry width="160" height="60" relative="1" as="geometry" />
        </mxCell>
        <mxCell id="27" value="Feature/Bugfix" style="endArrow=block;edgeStyle=elbowEdgeStyle;rounded=0;" parent="3" source="6" target="7" edge="1">
          <mxGeometry width="160" height="60" relative="1" as="geometry" />
        </mxCell>
        <mxCell id="28" style="endArrow=block;edgeStyle=elbowEdgeStyle;rounded=0;" parent="3" source="7" target="8" edge="1">
          <mxGeometry width="160" height="60" relative="1" as="geometry" />
        </mxCell>
        <mxCell id="29" style="endArrow=block;edgeStyle=elbowEdgeStyle;rounded=0;" parent="3" source="8" target="9" edge="1">
          <mxGeometry width="160" height="60" relative="1" as="geometry" />
        </mxCell>
        <mxCell id="30" style="endArrow=block;edgeStyle=elbowEdgeStyle;rounded=0;" parent="3" source="9" target="10" edge="1">
          <mxGeometry width="160" height="60" relative="1" as="geometry" />
        </mxCell>
        <mxCell id="31" style="endArrow=block;edgeStyle=elbowEdgeStyle;rounded=0;" parent="3" source="10" target="11" edge="1">
          <mxGeometry width="160" height="60" relative="1" as="geometry" />
        </mxCell>
        <mxCell id="32" value="Backport (optional)" style="endArrow=block;edgeStyle=elbowEdgeStyle;rounded=0;" parent="3" source="6" target="12" edge="1">
          <mxGeometry width="160" height="60" relative="1" as="geometry" />
        </mxCell>
        <mxCell id="33" style="endArrow=block;edgeStyle=elbowEdgeStyle;rounded=0;" parent="3" source="12" target="13" edge="1">
          <mxGeometry width="160" height="60" relative="1" as="geometry" />
        </mxCell>
        <mxCell id="34" value="Release" style="endArrow=block;edgeStyle=elbowEdgeStyle;rounded=0;" parent="3" source="6" target="14" edge="1">
          <mxGeometry width="160" height="60" relative="1" as="geometry" />
        </mxCell>
        <mxCell id="35" style="endArrow=block;edgeStyle=elbowEdgeStyle;rounded=0;" parent="3" source="14" target="15" edge="1">
          <mxGeometry width="160" height="60" relative="1" as="geometry" />
        </mxCell>
        <mxCell id="36" style="endArrow=block;edgeStyle=elbowEdgeStyle;rounded=0;" parent="3" source="15" target="16" edge="1">
          <mxGeometry width="160" height="60" relative="1" as="geometry" />
        </mxCell>
        <mxCell id="37" style="endArrow=block;edgeStyle=elbowEdgeStyle;rounded=0;" parent="3" source="16" target="17" edge="1">
          <mxGeometry width="160" height="60" relative="1" as="geometry" />
        </mxCell>
        <mxCell id="38" value="Hotfix" style="endArrow=block;edgeStyle=elbowEdgeStyle;rounded=0;" parent="3" source="6" target="18" edge="1">
          <mxGeometry width="160" height="60" relative="1" as="geometry" />
        </mxCell>
        <mxCell id="39" style="endArrow=block;edgeStyle=elbowEdgeStyle;rounded=0;" parent="3" source="18" target="19" edge="1">
          <mxGeometry width="160" height="60" relative="1" as="geometry" />
        </mxCell>
        <mxCell id="40" style="endArrow=block;edgeStyle=elbowEdgeStyle;rounded=0;" parent="3" source="19" target="20" edge="1">
          <mxGeometry width="160" height="60" relative="1" as="geometry" />
        </mxCell>
        <mxCell id="41" style="endArrow=block;edgeStyle=elbowEdgeStyle;rounded=0;" parent="3" source="20" target="21" edge="1">
          <mxGeometry width="160" height="60" relative="1" as="geometry" />
        </mxCell>
        <mxCell id="42" value="triggers" style="endArrow=block;edgeStyle=elbowEdgeStyle;rounded=0;" parent="3" source="17" target="22" edge="1">
          <mxGeometry width="160" height="60" relative="1" as="geometry" />
        </mxCell>
        <mxCell id="43" value="triggers" style="endArrow=block;edgeStyle=elbowEdgeStyle;rounded=0;" parent="3" source="21" target="23" edge="1">
          <mxGeometry width="160" height="60" relative="1" as="geometry" />
        </mxCell>
        <mxCell id="44" value="if PR labeled&#xa;auto-backport:release/x.y" style="endArrow=block;edgeStyle=elbowEdgeStyle;rounded=0;" parent="3" source="10" target="24" edge="1">
          <mxGeometry width="160" height="60" relative="1" as="geometry" />
        </mxCell>
        <mxCell id="4" value="Autobot (Automation)" style="shape=swimlane;rounded=1;swimlaneFillColor=#f8faff;horizontal=0;" parent="1" vertex="1">
          <mxGeometry x="20" y="940" width="1600" height="390" as="geometry" />
        </mxCell>
        <mxCell id="22" value="On tag `vX.Y.Z` (from `release/x.y`):&#xa;• Open/ensure PR: `release/x.y` → `main` (publish)&#xa;• Open/ensure PR: `release/x.y` → `develop` (sync)&#xa;• Enable auto-merge; merge when checks + approval pass" style="shape=process;whiteSpace=wrap;rounded=1;fillColor=#e8f4ff;strokeColor=#4a90e2;fontStyle=1;" parent="4" vertex="1">
          <mxGeometry x="70" y="980" width="720" height="130" as="geometry" />
        </mxCell>
        <mxCell id="23" value="On hotfix tag `vX.Y.z`:&#xa;• Open PR: `hotfix/x.y.z` (or `main`) → `develop`&#xa;• Open PR: `hotfix/x.y.z` (or `main`) → each open `release/*`&#xa;• Enable auto-merge; merge when checks + approval pass" style="shape=process;whiteSpace=wrap;rounded=1;fillColor=#e8f4ff;strokeColor=#4a90e2;fontStyle=1;" parent="4" vertex="1">
          <mxGeometry x="820" y="980" width="720" height="130" as="geometry" />
        </mxCell>
        <mxCell id="24" value="Backport label `auto-backport:release/x.y`:&#xa;• Cherry-pick merged commit onto target `release/x.y`&#xa;• Open PR → `release/x.y`&#xa;• Auto-merge when checks + approval pass&#xa;• If conflicts → open Draft PR" style="shape=process;whiteSpace=wrap;rounded=1;fillColor=#e8f4ff;strokeColor=#4a90e2;fontStyle=1;" parent="4" vertex="1">
          <mxGeometry x="70" y="1130" width="720" height="150" as="geometry" />
        </mxCell>
        <mxCell id="25" value="Nightly “Sweeper” automation:&#xa;• Rebase bot PRs on latest base&#xa;• Auto-close if empty diff (already in)&#xa;• Re-enable auto-merge unless opted out&#xa;• If conflicts → keep PR open (or Draft)" style="shape=process;whiteSpace=wrap;rounded=1;fillColor=#e8f4ff;strokeColor=#4a90e2;fontStyle=1;" parent="4" vertex="1">
          <mxGeometry x="820" y="1130" width="720" height="150" as="geometry" />
        </mxCell>
        <mxCell id="45" value="nightly" style="endArrow=block;edgeStyle=elbowEdgeStyle;rounded=0;" parent="4" source="22" target="25" edge="1">
          <mxGeometry width="160" height="60" relative="1" as="geometry" />
        </mxCell>
        <mxCell id="46" value="nightly" style="endArrow=block;edgeStyle=elbowEdgeStyle;rounded=0;" parent="4" source="23" target="25" edge="1">
          <mxGeometry width="160" height="60" relative="1" as="geometry" />
        </mxCell>
        <mxCell id="47" value="nightly" style="endArrow=block;edgeStyle=elbowEdgeStyle;rounded=0;" parent="4" source="24" target="25" edge="1">
          <mxGeometry width="160" height="60" relative="1" as="geometry" />
        </mxCell>
      </root>
    </mxGraphModel>
  </diagram>
</mxfile>
